<svg xmlns="http://www.w3.org/2000/svg" width="72" height="30" viewBox="0 0 72 30" fill="none">
  <path fill-rule="evenodd" clip-rule="evenodd" d="M9.75201 5.71768C11.095 5.83002 12.438 5.04362 13.2773 4.04658C14.1027 3.02145 14.6483 1.64525 14.5084 0.240967C13.3193 0.297138 11.8504 1.02737 11.011 2.05249C10.2416 2.93719 9.58414 4.36957 9.75201 5.71768ZM25.7278 23.8049V1.91206H33.9116C38.1363 1.91206 41.0881 4.83297 41.0881 9.10199C41.0881 13.371 38.0804 16.32 33.7997 16.32H29.1132V23.8049H25.7278ZM14.4943 5.98448C13.3111 5.91613 12.2316 6.34166 11.3596 6.68537C10.7984 6.90656 10.3232 7.09387 9.96173 7.09387C9.55604 7.09387 9.06123 6.89655 8.50568 6.675C7.77772 6.3847 6.94546 6.05281 6.0727 6.06874C4.07223 6.09683 2.21165 7.2343 1.19043 9.04582C-0.907966 12.6689 0.644848 18.0332 2.6733 20.9822C3.66654 22.4427 4.85563 24.0436 6.42244 23.9874C7.11174 23.9613 7.60758 23.7501 8.12073 23.5315C8.7115 23.2799 9.32522 23.0185 10.2835 23.0185C11.2085 23.0185 11.7954 23.2731 12.3588 23.5175C12.8944 23.7498 13.4089 23.973 14.1725 23.9593C15.7953 23.9312 16.8165 22.4989 17.8097 21.0384C18.8816 19.471 19.3526 17.9412 19.4241 17.709L19.4325 17.6822C19.4308 17.6805 19.4175 17.6744 19.3942 17.6636C19.0359 17.499 16.2972 16.2404 16.2709 12.8655C16.2445 10.0327 18.4432 8.59747 18.7893 8.37154L18.7893 8.37151C18.8104 8.35777 18.8245 8.34851 18.831 8.34368C17.432 6.26534 15.2497 6.04065 14.4943 5.98448ZM47.2715 23.9734C49.3979 23.9734 51.3704 22.8921 52.2657 21.1788H52.3356V23.8049H55.4692V12.9076C55.4692 9.74797 52.9512 7.71176 49.0761 7.71176C45.4809 7.71176 42.8229 9.77606 42.725 12.6127H45.7746C46.0265 11.2646 47.2715 10.3799 48.9782 10.3799C51.0486 10.3799 52.2097 11.3489 52.2097 13.1323V14.34L47.985 14.5928C44.054 14.8315 41.9276 16.4464 41.9276 19.255C41.9276 22.0916 44.1239 23.9734 47.2715 23.9734ZM48.1806 21.3755C46.376 21.3755 45.2288 20.5048 45.2288 19.1707C45.2288 17.7945 46.334 16.9941 48.4464 16.8677L52.2095 16.629V17.8647C52.2095 19.915 50.4748 21.3755 48.1806 21.3755ZM65.8632 24.6615C64.5062 28.4952 62.9534 29.759 59.6519 29.759C59.4001 29.759 58.5607 29.731 58.3649 29.6748V27.0488C58.5747 27.0769 59.0923 27.1049 59.3581 27.1049C60.855 27.1049 61.6944 26.473 62.212 24.83L62.5197 23.861L56.7841 7.92242H60.3234L64.3104 20.8559H64.3803L68.3673 7.92242H71.8086L65.8632 24.6615ZM29.1129 4.7768H33.0159C35.9537 4.7768 37.6324 6.3496 37.6324 9.11604C37.6324 11.8825 35.9537 13.4693 33.002 13.4693H29.1129V4.7768Z" fill="black"/>
</svg>