<?xml version="1.0" encoding="UTF-8"?>
<svg xmlns="http://www.w3.org/2000/svg" xmlns:xlink="http://www.w3.org/1999/xlink" width="70px" height="28px" viewBox="0 0 70 28" version="1.1">
<g id="surface1">
<path style=" stroke:none;fill-rule:nonzero;fill:rgb(37.254902%,38.823529%,40.784314%);fill-opacity:1;" d="M 33.191406 13.613281 L 33.191406 21.789062 L 30.609375 21.789062 L 30.609375 1.609375 L 37.449219 1.609375 C 39.101562 1.578125 40.6875 2.203125 41.886719 3.363281 C 43.089844 4.441406 43.761719 6.003906 43.730469 7.613281 C 43.761719 9.238281 43.089844 10.796875 41.886719 11.890625 C 40.6875 13.035156 39.210938 13.613281 37.46875 13.613281 Z M 33.191406 4.085938 L 33.191406 11.136719 L 37.515625 11.136719 C 38.476562 11.167969 39.40625 10.78125 40.0625 10.089844 C 41.421875 8.769531 41.4375 6.597656 40.125 5.230469 L 40.0625 5.164062 C 39.40625 4.457031 38.476562 4.070312 37.515625 4.101562 Z M 49.671875 7.53125 C 51.578125 7.53125 53.085938 8.046875 54.191406 9.058594 C 55.296875 10.089844 55.839844 11.488281 55.839844 13.277344 L 55.839844 21.773438 L 53.371094 21.773438 L 53.371094 19.859375 L 53.261719 19.859375 C 52.1875 21.433594 50.777344 22.222656 49 22.222656 C 47.496094 22.222656 46.210938 21.773438 45.203125 20.871094 C 44.210938 20.035156 43.648438 18.796875 43.683594 17.492188 C 43.683594 16.058594 44.226562 14.933594 45.300781 14.082031 C 46.371094 13.226562 47.816406 12.808594 49.609375 12.808594 C 51.144531 12.808594 52.394531 13.097656 53.390625 13.644531 L 53.390625 13.050781 C 53.390625 12.164062 53.003906 11.328125 52.332031 10.765625 C 51.644531 10.152344 50.761719 9.816406 49.847656 9.816406 C 48.40625 9.816406 47.269531 10.425781 46.421875 11.652344 L 44.144531 10.21875 C 45.378906 8.433594 47.222656 7.53125 49.671875 7.53125 Z M 46.339844 17.554688 C 46.339844 18.230469 46.660156 18.859375 47.191406 19.246094 C 47.765625 19.695312 48.472656 19.9375 49.191406 19.921875 C 50.28125 19.921875 51.324219 19.488281 52.089844 18.714844 C 52.941406 17.910156 53.371094 16.960938 53.371094 15.867188 C 52.570312 15.222656 51.449219 14.902344 50.007812 14.902344 C 48.96875 14.902344 48.085938 15.160156 47.382812 15.65625 C 46.695312 16.171875 46.339844 16.800781 46.339844 17.554688 Z M 70 7.980469 L 61.382812 27.871094 L 58.722656 27.871094 L 61.925781 20.917969 L 56.257812 7.996094 L 59.058594 7.996094 L 63.144531 17.910156 L 63.207031 17.910156 L 67.195312 7.996094 Z M 70 7.980469 "/>
<path style=" stroke:none;fill-rule:nonzero;fill:rgb(25.882353%,52.156863%,95.686275%);fill-opacity:1;" d="M 22.761719 11.84375 C 22.761719 11.054688 22.699219 10.265625 22.570312 9.496094 L 11.695312 9.496094 L 11.695312 13.953125 L 17.925781 13.953125 C 17.667969 15.382812 16.835938 16.671875 15.617188 17.476562 L 15.617188 20.371094 L 19.335938 20.371094 C 21.511719 18.359375 22.761719 15.382812 22.761719 11.84375 Z M 22.761719 11.84375 "/>
<path style=" stroke:none;fill-rule:nonzero;fill:rgb(20.392157%,65.882353%,32.54902%);fill-opacity:1;" d="M 11.695312 23.171875 C 14.800781 23.171875 17.429688 22.140625 19.335938 20.371094 L 15.617188 17.476562 C 14.578125 18.183594 13.246094 18.585938 11.695312 18.585938 C 8.683594 18.585938 6.136719 16.542969 5.222656 13.808594 L 1.394531 13.808594 L 1.394531 16.800781 C 3.347656 20.695312 7.335938 23.171875 11.695312 23.171875 Z M 11.695312 23.171875 "/>
<path style=" stroke:none;fill-rule:nonzero;fill:rgb(98.431373%,73.72549%,1.568627%);fill-opacity:1;" d="M 5.222656 13.808594 C 4.742188 12.375 4.742188 10.8125 5.222656 9.367188 L 5.222656 6.386719 L 1.394531 6.386719 C -0.257812 9.65625 -0.257812 13.515625 1.394531 16.785156 Z M 5.222656 13.808594 "/>
<path style=" stroke:none;fill-rule:nonzero;fill:rgb(91.764706%,26.27451%,20.784314%);fill-opacity:1;" d="M 11.695312 4.585938 C 13.34375 4.554688 14.929688 5.179688 16.113281 6.324219 L 19.398438 3.023438 C 17.316406 1.046875 14.5625 -0.03125 11.695312 0 C 7.335938 0 3.347656 2.476562 1.394531 6.386719 L 5.222656 9.382812 C 6.136719 6.628906 8.683594 4.585938 11.695312 4.585938 Z M 11.695312 4.585938 "/>
</g>
</svg>
