<?xml version="1.0" encoding="UTF-8"?>
<svg xmlns="http://www.w3.org/2000/svg" xmlns:xlink="http://www.w3.org/1999/xlink" width="64px" height="45px" viewBox="0 0 63 45" version="1.1">
<g id="surface1">
<path style=" stroke:none;fill-rule:nonzero;fill:rgb(100%,37.254902%,0%);fill-opacity:1;" d="M 24.90625 10.707031 L 37.894531 10.707031 L 37.894531 34.292969 L 24.90625 34.292969 Z M 24.90625 10.707031 "/>
<path style=" stroke:none;fill-rule:nonzero;fill:rgb(92.156863%,0%,10.588235%);fill-opacity:1;" d="M 25.734375 22.5 C 25.726562 17.898438 27.820312 13.546875 31.402344 10.707031 C 25.316406 5.871094 16.578125 6.578125 11.324219 12.324219 C 6.074219 18.070312 6.074219 26.929688 11.324219 32.675781 C 16.578125 38.421875 25.316406 39.128906 31.402344 34.292969 C 27.820312 31.453125 25.726562 27.101562 25.734375 22.5 Z M 25.734375 22.5 "/>
<path style=" stroke:none;fill-rule:nonzero;fill:rgb(96.862745%,61.960784%,10.588235%);fill-opacity:1;" d="M 55.417969 22.5 C 55.417969 28.242188 52.171875 33.480469 47.0625 35.992188 C 41.949219 38.5 35.871094 37.84375 31.402344 34.292969 C 34.980469 31.449219 37.070312 27.101562 37.070312 22.5 C 37.070312 17.898438 34.980469 13.550781 31.402344 10.707031 C 35.871094 7.15625 41.949219 6.5 47.0625 9.007812 C 52.171875 11.519531 55.417969 16.757812 55.417969 22.5 Z M 55.417969 22.5 "/>
<path style=" stroke:none;fill-rule:nonzero;fill:rgb(96.862745%,61.960784%,10.588235%);fill-opacity:1;" d="M 54 31.792969 L 54 31.3125 L 54.191406 31.3125 L 54.191406 31.214844 L 53.703125 31.214844 L 53.703125 31.3125 L 53.894531 31.3125 L 53.894531 31.792969 Z M 54.953125 31.792969 L 54.953125 31.210938 L 54.800781 31.210938 L 54.628906 31.613281 L 54.457031 31.210938 L 54.304688 31.210938 L 54.304688 31.792969 L 54.414062 31.792969 L 54.414062 31.355469 L 54.574219 31.734375 L 54.683594 31.734375 L 54.847656 31.355469 L 54.847656 31.792969 Z M 54.953125 31.792969 "/>
</g>
</svg>
