<svg xmlns="http://www.w3.org/2000/svg" width="58" height="50" viewBox="0 0 58 50" fill="none">
  <path fill-rule="evenodd" clip-rule="evenodd" d="M7.50343 34.5747H3.10327C2.80216 34.5747 2.54607 34.7939 2.49911 35.0916L0.71946 46.3939C0.684088 46.617 0.856513 46.818 1.08235 46.818H3.18303C3.48414 46.818 3.74023 46.5988 3.78719 46.3006L4.26718 43.2522C4.31348 42.9536 4.5702 42.7347 4.87068 42.7347H6.26362C9.16217 42.7347 10.8349 41.3297 11.272 38.5456C11.4688 37.3275 11.2803 36.3704 10.7107 35.7C10.0855 34.9642 8.97608 34.5747 7.50343 34.5747ZM8.01109 38.7027C7.77051 40.2843 6.56411 40.2843 5.39763 40.2843H4.73363L5.19945 37.3305C5.22711 37.1522 5.38152 37.0206 5.56169 37.0206H5.86601C6.66061 37.0206 7.41024 37.0206 7.79761 37.4743C8.02836 37.7451 8.09922 38.1471 8.01109 38.7027ZM20.6566 38.652H18.5495C18.3699 38.652 18.2148 38.7836 18.1871 38.9622L18.0939 39.5524L17.9465 39.3386C17.4904 38.6753 16.4733 38.4537 15.458 38.4537C13.1293 38.4537 11.1407 40.2202 10.7533 42.6983C10.552 43.9343 10.8382 45.1162 11.5382 45.9406C12.1804 46.6984 13.0993 47.0143 14.1923 47.0143C16.0684 47.0143 17.109 45.8058 17.109 45.8058L17.0149 46.3924C16.9795 46.6167 17.1519 46.8177 17.3764 46.8177H19.2745C19.5764 46.8177 19.831 46.5985 19.8786 46.3003L21.0175 39.0761C21.0535 38.8539 20.8817 38.652 20.6566 38.652ZM17.7194 42.7601C17.516 43.9659 16.5605 44.7753 15.3422 44.7753C14.7303 44.7753 14.2411 44.5788 13.9273 44.2063C13.6158 43.8364 13.4973 43.3097 13.5965 42.7234C13.7864 41.5277 14.758 40.692 15.9579 40.692C16.5561 40.692 17.0426 40.891 17.363 41.2668C17.6839 41.6464 17.8114 42.1761 17.7194 42.7601ZM29.7614 38.6517H31.8789C32.1755 38.6517 32.3485 38.9849 32.18 39.2285L25.1374 49.4113C25.0233 49.5762 24.8355 49.6743 24.6348 49.6743H22.5199C22.2222 49.6743 22.0483 49.3385 22.2207 49.0942L24.4136 45.9937L22.0813 39.1376C22.0006 38.8993 22.1763 38.6517 22.4294 38.6517H24.51C24.7804 38.6517 25.0189 38.8295 25.0969 39.0887L26.3346 43.2295L29.2552 38.9205C29.3695 38.7522 29.5595 38.6517 29.7614 38.6517Z" fill="#253B80"/>
  <path fill-rule="evenodd" clip-rule="evenodd" d="M52.7193 46.3938L54.5251 34.8847C54.5528 34.7061 54.7073 34.5746 54.8869 34.574H56.9199C57.1444 34.574 57.3168 34.7756 57.2813 34.9987L55.5005 46.3004C55.4541 46.5987 55.198 46.8179 54.8964 46.8179H53.0808C52.8563 46.8179 52.6839 46.6169 52.7193 46.3938ZM38.8893 34.5746H34.4884C34.1879 34.5746 33.9319 34.7938 33.8848 35.0914L32.1052 46.3938C32.0698 46.6169 32.2422 46.8179 32.467 46.8179H34.7251C34.935 46.8179 35.1145 46.6646 35.1473 46.4558L35.6523 43.252C35.6987 42.9535 35.9554 42.7346 36.2558 42.7346H37.648C40.5472 42.7346 42.2196 41.3296 42.657 38.5454C42.8544 37.3274 42.6647 36.3703 42.0955 35.6999C41.4705 34.9641 40.362 34.5746 38.8893 34.5746ZM39.397 38.7026C39.157 40.2842 37.9505 40.2842 36.7834 40.2842H36.12L36.5866 37.3304C36.6143 37.152 36.7673 37.0205 36.948 37.0205H37.2523C38.0464 37.0205 38.7967 37.0205 39.1838 37.4741C39.4149 37.7449 39.4851 38.147 39.397 38.7026ZM52.0413 38.6519H49.9357C49.7546 38.6519 49.601 38.7834 49.5739 38.9621L49.4807 39.5523L49.3327 39.3385C48.8766 38.6752 47.8601 38.4536 46.8448 38.4536C44.5161 38.4536 42.5281 40.2201 42.1407 42.6982C41.94 43.9341 42.225 45.1161 42.925 45.9404C43.5684 46.6983 44.486 47.0141 45.5791 47.0141C47.4552 47.0141 48.4955 45.8056 48.4955 45.8056L48.4017 46.3923C48.3663 46.6166 48.5387 46.8176 48.7646 46.8176H50.6619C50.9623 46.8176 51.2184 46.5984 51.2654 46.3001L52.4049 39.076C52.4397 38.8538 52.2673 38.6519 52.0413 38.6519ZM49.1044 42.7599C48.9022 43.9657 47.9455 44.7752 46.7269 44.7752C46.1162 44.7752 45.6261 44.5787 45.312 44.2061C45.0006 43.8363 44.8835 43.3096 44.9815 42.7233C45.1723 41.5276 46.1427 40.6919 47.3426 40.6919C47.9411 40.6919 48.4273 40.8908 48.748 41.2666C49.0701 41.6463 49.1976 42.176 49.1044 42.7599Z" fill="#179BD7"/>
  <path d="M23.788 30.5312L24.329 27.0895L23.124 27.0614H17.3701L21.3688 1.6639C21.381 1.58722 21.4215 1.51573 21.4805 1.46497C21.5394 1.41421 21.6151 1.38623 21.6937 1.38623H31.3957C34.6167 1.38623 36.8394 2.05761 38 3.38275C38.544 4.00442 38.8905 4.65403 39.0582 5.36892C39.2338 6.11907 39.2371 7.01527 39.0653 8.10834L39.0528 8.18813V8.8885L39.5971 9.19727C40.0553 9.44073 40.4192 9.71944 40.6984 10.0386C41.1641 10.5701 41.4651 11.2456 41.5923 12.0465C41.7236 12.8702 41.6801 13.8503 41.4651 14.96C41.2168 16.2364 40.8155 17.3481 40.2736 18.2578C39.7748 19.096 39.1397 19.7911 38.3859 20.33C37.6659 20.8418 36.8105 21.2304 35.8434 21.4791C34.9061 21.7234 33.8378 21.8469 32.6659 21.8469H31.9108C31.371 21.8469 30.8464 22.0416 30.4349 22.3909C30.0222 22.7473 29.7489 23.234 29.6652 23.7667L29.6083 24.0766L28.6526 30.1426L28.6091 30.3654C28.5978 30.4361 28.5781 30.4713 28.5493 30.4951C28.5234 30.5166 28.4861 30.5312 28.4498 30.5312H23.788Z" fill="#253B80"/>
  <path d="M40.1115 8.26929C40.0827 8.45474 40.0496 8.64433 40.0124 8.83912C38.7327 15.4193 34.3555 17.6925 28.7648 17.6925H25.9183C25.2347 17.6925 24.6586 18.1898 24.552 18.8653L23.0945 28.1238L22.6818 30.7481C22.6125 31.1916 22.954 31.5915 23.4006 31.5915H28.4494C29.0473 31.5915 29.555 31.1564 29.6491 30.5659L29.6988 30.3088L30.6495 24.2663L30.7105 23.935C30.8034 23.3424 31.3123 22.9072 31.9101 22.9072H32.6652C37.5566 22.9072 41.3859 20.9179 42.5051 15.1613C42.9726 12.7566 42.7305 10.7486 41.4934 9.33644C41.1191 8.91061 40.6546 8.5573 40.1115 8.26929Z" fill="#179BD7"/>
  <path d="M38.773 7.73516C38.5776 7.67817 38.3758 7.62636 38.1688 7.57975C37.961 7.53417 37.7478 7.49376 37.5287 7.45854C36.7611 7.3342 35.9203 7.27515 35.0193 7.27515H27.4149C27.2276 7.27515 27.0498 7.31762 26.8905 7.3943C26.5398 7.56316 26.2793 7.89577 26.2162 8.30293L24.5982 18.5664L24.5518 18.8658C24.6584 18.1903 25.2345 17.693 25.9181 17.693H28.7646C34.3553 17.693 38.7328 15.4188 40.0122 8.83963C40.0503 8.64484 40.0824 8.45525 40.1113 8.2698C39.7877 8.0978 39.4369 7.95067 39.0594 7.82529C38.9665 7.79421 38.8703 7.76418 38.773 7.73516Z" fill="#222D65"/>
  <path d="M26.2165 8.30273C26.2796 7.89554 26.5404 7.56297 26.8909 7.39511C27.0514 7.31843 27.2282 7.27596 27.4152 7.27596H35.0199C35.9209 7.27596 36.7617 7.33501 37.529 7.45935C37.7485 7.49458 37.9616 7.53499 38.1695 7.58056C38.3764 7.62721 38.578 7.67901 38.7736 7.73598C38.8707 7.765 38.9668 7.79503 39.0609 7.82509C39.4385 7.95045 39.7892 8.09862 40.1129 8.26957C40.4937 5.83788 40.1099 4.18222 38.7974 2.683C37.3504 1.03253 34.7386 0.325928 31.3967 0.325928H21.6943C21.0116 0.325928 20.4295 0.823224 20.3238 1.4998L16.2828 27.1584C16.203 27.666 16.594 28.1241 17.1049 28.1241H23.0949L24.5988 18.5662L26.2165 8.30273Z" fill="#253B80"/>
</svg>