<svg xmlns="http://www.w3.org/2000/svg" width="70" height="24" viewBox="0 0 70 24" fill="none">
  <g clip-path="url(#clip0_2722_2981)">
    <path fill-rule="evenodd" clip-rule="evenodd" d="M17.5007 22.9045H11.4427L6.89987 5.71791C6.68425 4.92732 6.22642 4.2284 5.55298 3.89899C3.87232 3.07116 2.02034 2.41234 0 2.08007V1.41838H9.75906C11.106 1.41838 12.1161 2.41234 12.2845 3.56671L14.6415 15.964L20.6967 1.41838H26.5864L17.5007 22.9045ZM29.9536 22.9045H24.2322L28.9434 1.41838H34.6647L29.9536 22.9045ZM42.0668 7.37071C42.2351 6.21347 43.2453 5.55179 44.4238 5.55179C46.2758 5.38565 48.2932 5.71792 49.9768 6.54288L50.987 1.91681C49.3033 1.25513 47.4514 0.922852 45.7707 0.922852C40.2177 0.922852 36.1771 3.899 36.1771 8.02953C36.1771 11.1718 39.0392 12.8217 41.0595 13.8157C43.2453 14.8068 44.0871 15.4685 43.9187 16.4596C43.9187 17.9462 42.2351 18.6079 40.5545 18.6079C38.5341 18.6079 36.5138 18.1124 34.6648 17.2845L33.6546 21.9135C35.6749 22.7384 37.8607 23.0707 39.881 23.0707C46.1074 23.234 49.9768 20.2607 49.9768 15.7979C49.9768 10.1779 42.0668 9.84845 42.0668 7.37071ZM70 22.9045L65.4572 1.41838H60.5777C59.5675 1.41838 58.5573 2.08007 58.2206 3.07116L49.8084 22.9045H55.6981L56.8737 19.7651H64.1103L64.7837 22.9045H70ZM61.4195 7.20458L63.1001 15.3024H58.389L61.4195 7.20458Z" fill="#172B85"/>
  </g>
  <defs>
    <clipPath id="clip0_2722_2981">
      <rect width="70" height="22.1543" fill="white" transform="translate(0 0.922852)"/>
    </clipPath>
  </defs>
</svg>